# xmcd CD database file
#
# Track frame offsets:
#	150
#	9098
#	31147
#	50865
#	71365
#	89392
#	112509
#	137052
#	154603
#	171893
#	184987
#	203437
#	215818
#	220587
#	242150
#	262889
#
# Disc length: 3789 seconds
#
# Revision: 2
# Processed by: cddbd v1.4PL0 Copyright (c) Steve Scherf et al.
# Submitted via: CDex 1.40Release
#
DISCID=d10ecb10
DTITLE=Dr. Dre - The Chronic+
DYEAR=1998
DGENRE=Alternative
TTITLE0=The Chronic
TTITLE1=Wit Dre Day
TTITLE2=Let Me Ride
TTITLE3=The Day The Niggaz Took Over
TTITLE4=Nuthin But A 'G' Thang
TTITLE5=Deeez Nuuuts
TTITLE6=Lil' Ghetto Boy
TTITLE7=A Nigga Witta Gun
TTITLE8=Rat-Tat-Tat-Tat
TTITLE9=The $20 Sack Pyramid
TTITLE10=Lyrical Gangbang
TTITLE11=High Powered
TTITLE12=The Doctor's Office
TTITLE13=Stranded On Death Row
TTITLE14=The Roach (Outro)
TTITLE15=Bonus Track
EXTD=YEAR: 1998 ID3G: 20
EXTT0=
EXTT1=
EXTT2=
EXTT3=
EXTT4=
EXTT5=
EXTT6=
EXTT7=
EXTT8=
EXTT9=
EXTT10=
EXTT11=
EXTT12=
EXTT13=
EXTT14=
EXTT15=
PLAYORDER=
